# xmcd
#
# Track frame offsets:
#	182
#	16457
#	32575
#	47212
#	61580
#	72907
#	85225
#	100232
#	114132
#	127977
#	140335
#	154395
#
# Disc length: 2203 seconds
#
# Revision: 0
# Processed by: cddbd v1.5.2PL0 Copyright (c) Steve Scherf et al.
# Submitted via: dBpowerAMP V4.0
#
DISCID=9608990c
DTITLE=Belmonte e Amaraí - Os grandes sucessos
DYEAR=1994
DGENRE=Sertaneja
TTITLE0=Ave mensageira
TTITLE1=Ao te perder
TTITLE2=O tropeiro
TTITLE3=A hora do amor
TTITLE4=Amor distante
TTITLE5=Ainda ontem
TTITLE6=Uma noite, não
TTITLE7=Velha canoa
TTITLE8=Amor de artista
TTITLE9=A voz do amor
TTITLE10=Não vá embora
TTITLE11=Eterna saudade
EXTD=
EXTT0=
EXTT1=
EXTT2=
EXTT3=
EXTT4=
EXTT5=
EXTT6=
EXTT7=
EXTT8=
EXTT9=
EXTT10=
EXTT11=
PLAYORDER=
